<svg xmlns="http://www.w3.org/2000/svg" width="32" height="32"><path fill="#4d5ae5" d="M32 16A16 16 0 0 1 4.7 27.3 16 16 0 0 1 16 0a16 16 0 0 1 16 16z"/><path fill="#f4f4fd" d="M22.4 13.4c0-.7-.2-1.2-.3-1.6-.2-.4-.4-.8-.8-1.1-.3-.4-.7-.6-1-.8l-1.6-.3a43.3 43.3 0 0 0-6.9.3c-.4.2-.8.4-1.1.8-.3.3-.6.7-.7 1.1a44.2 44.2 0 0 0 0 8.4c.1.4.4.8.7 1.1.3.4.7.6 1.1.8l1.6.3a46.7 46.7 0 0 0 6.8-.3c.9-.4 1.6-1 1.9-2 .1-.3.3-.8.3-1.5v-5.2zm-1.2 5.2-.2 1.2c-.2.5-.6 1-1.2 1.2l-1.2.2a45 45 0 0 1-6.3-.2 2 2 0 0 1-.8-.5 2 2 0 0 1-.5-.7l-.2-1.2a45 45 0 0 1 .2-6.4l.5-.7.8-.5c.2 0 .5-.2 1.1-.2a45 45 0 0 1 6.4.2l.7.5.5.7.2 1.2a45 45 0 0 1 0 5.2z"/><path fill="#f4f4fd" d="M16 12.7a3.3 3.3 0 1 0 0 6.6 3.3 3.3 0 0 0 0-6.6zm0 5.4a2.1 2.1 0 1 1 0-4.2 2.1 2.1 0 0 1 0 4.2zM20.2 12.6a.8.8 0 1 1-1.5 0 .8.8 0 0 1 1.5 0z"/></svg>